<?xml version="1.0" encoding="UTF-8" standalone="no" ?>
<!DOCTYPE svg PUBLIC "-//W3C//DTD SVG 1.1//EN" "http://www.w3.org/Graphics/SVG/1.1/DTD/svg11.dtd">
<svg xmlns="http://www.w3.org/2000/svg" xmlns:xlink="http://www.w3.org/1999/xlink" version="1.1" width="1080" height="1080" viewBox="0 0 1080 1080" xml:space="preserve">
<desc>Created with Fabric.js 5.2.4</desc>
<defs>
</defs>
<rect x="0" y="0" width="100%" height="100%" fill="transparent"></rect>
<g transform="matrix(1 0 0 1 540 540)" id="24d0f72d-19ed-4166-8c02-ca4c41c33209"  >
<rect style="stroke: none; stroke-width: 1; stroke-dasharray: none; stroke-linecap: butt; stroke-dashoffset: 0; stroke-linejoin: miter; stroke-miterlimit: 4; fill: rgb(255,255,255); fill-rule: nonzero; opacity: 1; visibility: hidden;" vector-effect="non-scaling-stroke"  x="-540" y="-540" rx="0" ry="0" width="1080" height="1080" />
</g>
<g transform="matrix(1 0 0 1 540 540)" id="8b008b8e-b287-4f29-b0a1-172a88ddc337"  >
</g>
<g transform="matrix(41.87 0 0 41.87 540 540)" id="9447928e-1c51-48d9-9da4-945759034bae"  >
<path style="stroke: rgb(0,0,0); stroke-width: 0; stroke-dasharray: none; stroke-linecap: butt; stroke-dashoffset: 0; stroke-linejoin: miter; stroke-miterlimit: 4; fill: rgb(255,255,255); fill-rule: nonzero; opacity: 1;" vector-effect="non-scaling-stroke"  transform=" translate(-12, -12)" d="M 22.282 9.821 C 22.824503269277507 8.186328799277646 22.63647852465142 6.397178613010065 21.766 4.910999999999999 C 20.456908267755757 2.6322016697973685 17.82565125891268 1.460059530681404 15.255999999999997 2.011 C 13.808278324573243 0.40045528750409765 11.611662913854707 -0.3159760254048809 9.492774730166685 0.131310443735686 C 7.373886546478664 0.5785969128762529 5.654253279000773 2.1217283117227543 4.981 4.1800000000000015 C 3.2930083553190634 4.526076673681878 1.836071099307226 5.582884588247742 0.9829999999999992 7.079999999999998 C -0.34061626218656116 9.35518599644754 -0.040139286039243105 12.22528707278337 1.725999999999999 14.177 C 1.1807231257327317 15.811046425130888 1.3665932464574482 17.60086635234478 2.2359999999999993 19.088 C 3.5468325289178244 21.367606446799442 6.1798980362539435 22.539654024892265 8.751000000000001 21.988 C 9.894434825511649 23.27628064802157 11.53749571310263 24.009445098195236 13.259999999999998 24 C 15.893934923116499 24.00238747808254 18.227380604903953 22.30202841058461 19.032 19.793999999999997 C 20.71935241765945 19.447050043462223 22.175653081255902 18.390439604525593 23.029 16.894000000000002 C 24.336489662479085 14.623025749507955 24.035040578976123 11.768742794198108 22.282 9.821000000000002 z M 13.26 22.43 C 12.208962315936432 22.43175169149428 11.19082841026447 22.063580877204 10.384 21.39 L 10.525 21.309 L 15.304 18.551000000000002 C 15.545556149848515 18.408952073788857 15.694487073577747 18.1502225863919 15.696 17.87 L 15.696 11.133000000000001 L 17.716 12.301 C 17.736251949173067 12.311260956812195 17.750375639979815 12.330588112653007 17.754 12.353 L 17.754 17.936 C 17.748500564884623 20.415686152826876 15.739686152826877 22.424500564884617 13.260000000000002 22.43 z M 3.6 18.304 C 3.072498936439228 17.39361036002251 2.883049724922474 16.326320783365507 3.065 15.29 L 3.207 15.375 L 7.99 18.134 C 8.230824754542207 18.275217050231568 8.529175245457793 18.275217050231568 8.77 18.134 L 14.613 14.765 L 14.613 17.097 C 14.612145164776779 17.12164860624694 14.59996898960521 17.144525056569282 14.58 17.159000000000002 L 9.74 19.95 C 7.589562418281954 21.187989027513535 4.842822204241754 20.451647921274095 3.6000000000000014 18.304 z M 2.34 7.896 C 2.870971275157357 6.9796032985297005 3.709114903806096 6.2806779480123875 4.705999999999997 5.923000000000002 L 4.7059999999999995 11.6 C 4.7024539113432 11.879209632286264 4.851121893755795 12.138229106798928 5.093999999999999 12.276 L 10.908999999999999 15.631 L 8.889 16.799 C 8.866787826971294 16.810734226194924 8.840212173028705 16.810734226194924 8.818 16.799 L 3.9879999999999995 14.013 C 1.8409155736731102 12.769385633280548 1.1040270888395587 10.023492316919599 2.3400000000000007 7.871999999999998 z M 18.937 11.751 L 13.104000000000001 8.363999999999999 L 15.119 7.2 C 15.141212173028705 7.1882657738050755 15.167787826971294 7.1882657738050755 15.19 7.2 L 20.02 9.991 C 21.528430091348913 10.860468016936906 22.39892044835172 12.5229870104582 22.25420817355077 14.258035808182639 C 22.10949589874982 15.993084605907077 20.975622975923393 17.4884290680077 19.344000000000005 18.096 L 19.344 12.418 C 19.335479198622792 12.139441514193384 19.18081879357272 11.885980850388965 18.937 11.751 z M 20.947000000000003 8.728 L 20.806000000000004 8.642999999999999 L 16.032000000000004 5.860999999999999 C 15.789628170810136 5.718889960855269 15.48937182918987 5.718889960855269 15.247000000000003 5.860999999999999 L 9.409 9.23 L 9.409 6.897 C 9.406525738311318 6.87308443917199 9.41725250557866 6.8497154104824265 9.437000000000001 6.836 L 14.267000000000001 4.049 C 15.778331349696 3.1792194961131974 17.65611027413534 3.2608622935984064 19.08624785347836 4.258533119906561 C 20.51638543282138 5.2562039462147165 21.24141167562433 6.990290501925477 20.947000000000003 8.709000000000003 z M 8.307000000000002 12.863 L 6.287000000000003 11.699 C 6.266427536238989 11.686658777613905 6.252479411525239 11.665736590543279 6.249000000000002 11.642 L 6.249000000000002 6.075 C 6.252423628464687 4.331890112762819 7.2622165040966475 2.747546266979258 8.840865434627172 2.008417486352559 C 10.419514365157697 1.2692887057258595 12.283027471499665 1.5083409507289502 13.624 2.6219999999999994 L 13.482000000000003 2.7020000000000004 L 8.704 5.46 C 8.462059455548905 5.601797836855923 8.312721821480185 5.860573737112407 8.311 6.141 z M 9.404000000000002 10.498 L 12.006000000000002 8.998 L 14.613000000000003 10.498 L 14.613000000000003 13.497 L 12.016000000000004 14.997 L 9.409000000000002 13.497 z" stroke-linecap="round" />
</g>
</svg>